<?xml version="1.0" encoding="utf-8"?>
<!-- Generator: Adobe Illustrator 17.0.0, SVG Export Plug-In . SVG Version: 6.00 Build 0)  -->
<!DOCTYPE svg PUBLIC "-//W3C//DTD SVG 1.1//EN" "http://www.w3.org/Graphics/SVG/1.1/DTD/svg11.dtd">
<svg version="1.1" id="Layer_1" xmlns="http://www.w3.org/2000/svg" xmlns:xlink="http://www.w3.org/1999/xlink" x="0px" y="0px"
	 width="212px" height="212px" viewBox="0 0 212 212" enable-background="new 0 0 212 212" xml:space="preserve">
<path d="M212,162.04c0,27.614-22.386,50-50,50H50c-27.614,0-50-22.386-50-50v-112c0-27.614,22.386-50,50-50h112
	c27.614,0,50,22.386,50,50V162.04z"/>
<path fill="#75CEE7" d="M162.359,70.85c16.055,3.49,20.891-5.124,19.446-5.518c-4.887,0.955-11.327-1.111-19.661-3.839
	c-1.364-0.446-2.543-1.419-3.073-2.752c-0.563-1.414-0.362-2.899,0.473-4.03c1.169-1.583,0.984-2.362,0.451-2.762
	c-0.41-0.308-1.333-0.372-2.424,0.38c-3.321,2.289-8.015,4.592-12.227,3.806c-1.346-0.256-2.02-0.378-3.372-0.606
	c-3.11-0.513-4.683-4.772-3.6-7.374c0.32-1.291,0.482-1.936,0.808-3.225c0.851-2.178-0.822-4.141-1.747-3.148
	c-2.107,2.076-3.091,3.15-5.121,5.268c-3.019,3.554-7.792,5.533-12.815,5.415c-3.789-0.089-7.293-1.081-5.984-4.788
	c0.272-0.975,2.719-5.021,2.999-5.994c1.208-2.868,1.201-7.649-0.348-7.706c-13.185,11.516-33.003,36.238-9.252,51.853
	l22.731,13.139c1.594,0.933,2.278,2.883,1.615,4.607l-1.552,3.004c-0.314,0.607-1.073,0.827-1.662,0.481L33.221,51.384
	c-1.728-1.017-3.79,0.659-3.148,2.559l7.808,23.084c2.546,8.146,12.532,19.445,24.807,23.545l49.445,14.138
	c2.687,0.796,3.966,3.858,2.643,6.329l-10.528,19.663c-1.746,3.799-0.128,8.298,3.638,10.114l54.223,26.246
	c2.859,1.379,6.187,1.39,9.055,0.032l7.989-5.676l-22.457-46.547c-0.433-0.898-1.123-1.647-1.983-2.152l-14.653-8.604
	c-0.567-0.333-0.757-1.063-0.425-1.63l16.549-28.233c2.119-4.188-0.739-6.75-4.237-6.652c0,0-8.176-0.302-10.28-0.365
	c-2.104-0.062-2.268,0.825-1.775,1.251c0.493,0.427,2.409,1.818,2.409,1.818c1.063,0.8,1.363,2.267,0.699,3.42l-3.897,6.702
	l-26.344-15.293c-3.646-2.004-3.394-5.542-2.513-7.385C115.036,57.733,155.812,69.427,162.359,70.85z M151.835,136.969
	l-0.547,11.954c-0.154,1.312-2.345,1.623-3.104,0.542l-16.78-24.288l19.355,9.796C151.502,135.346,151.932,136.143,151.835,136.969z
	"/>
</svg>
